<svg xmlns="http://www.w3.org/2000/svg" width="1200" height="630" viewBox="0 0 1200 630" role="img" aria-label="jQuery 4 Cheat Sheet preview">
  <rect width="1200" height="630" fill="#f4f6f8"/>
  <rect x="88" y="78" width="1024" height="474" rx="18" fill="#ffffff" stroke="#d9e0e6" stroke-width="2"/>
  <rect x="88" y="78" width="1024" height="76" rx="18" fill="#202428"/>
  <path d="M122 154h990v1H122z" fill="#d9e0e6"/>
  <circle cx="132" cy="116" r="10" fill="#7fc7a9"/>
  <circle cx="166" cy="116" r="10" fill="#e0bd70"/>
  <circle cx="200" cy="116" r="10" fill="#e48a7a"/>
  <text x="248" y="124" fill="#edf2f6" font-family="Segoe UI, Arial, sans-serif" font-size="22" font-weight="700">jQueryScript.Net</text>
  <text x="136" y="242" fill="#1f6146" font-family="Segoe UI, Arial, sans-serif" font-size="26" font-weight="800" letter-spacing="3">JQUERY 4 REFERENCE</text>
  <text x="136" y="322" fill="#11161a" font-family="Segoe UI, Arial, sans-serif" font-size="70" font-weight="800">jQuery 4 Cheat Sheet</text>
  <text x="136" y="380" fill="#68737d" font-family="Segoe UI, Arial, sans-serif" font-size="30">Selectors, Events, Ajax, Effects, Utilities, Removed APIs</text>
  <rect x="136" y="430" width="206" height="52" rx="8" fill="#2d7f5e"/>
  <text x="166" y="464" fill="#ffffff" font-family="Segoe UI, Arial, sans-serif" font-size="22" font-weight="700">51 Examples</text>
  <rect x="366" y="430" width="228" height="52" rx="8" fill="#e7f4ee"/>
  <text x="396" y="464" fill="#1f6146" font-family="Segoe UI, Arial, sans-serif" font-size="22" font-weight="700">12 Sections</text>
  <rect x="728" y="204" width="302" height="42" rx="8" fill="#171b20"/>
  <rect x="728" y="270" width="302" height="42" rx="8" fill="#171b20"/>
  <rect x="728" y="336" width="302" height="42" rx="8" fill="#171b20"/>
  <text x="752" y="232" fill="#edf2f6" font-family="Consolas, monospace" font-size="20">$(".button").on("click")</text>
  <text x="752" y="298" fill="#edf2f6" font-family="Consolas, monospace" font-size="20">$.ajax({ dataType })</text>
  <text x="752" y="364" fill="#edf2f6" font-family="Consolas, monospace" font-size="20">value.trim()</text>
</svg>
